<svg width="60" height="60" viewBox="0 0 60 60" fill="none" xmlns="http://www.w3.org/2000/svg">
<path d="M53.3333 53.3333H6.66667V6.66667H53.3333M53.3333 0H6.66667C4.89856 0 3.20286 0.702379 1.95262 1.95262C0.702379 3.20286 0 4.89856 0 6.66667V53.3333C0 55.1014 0.702379 56.7971 1.95262 58.0474C3.20286 59.2976 4.89856 60 6.66667 60H53.3333C55.1014 60 56.7971 59.2976 58.0474 58.0474C59.2976 56.7971 60 55.1014 60 53.3333V6.66667C60 2.96667 57 0 53.3333 0ZM45 44.1667C45 39.1667 35 36.6667 30 36.6667C25 36.6667 15 39.1667 15 44.1667V46.6667H45M30 30.8333C31.9891 30.8333 33.8968 30.0432 35.3033 28.6366C36.7098 27.2301 37.5 25.3225 37.5 23.3333C37.5 21.3442 36.7098 19.4366 35.3033 18.03C33.8968 16.6235 31.9891 15.8333 30 15.8333C28.0109 15.8333 26.1032 16.6235 24.6967 18.03C23.2902 19.4366 22.5 21.3442 22.5 23.3333C22.5 25.3225 23.2902 27.2301 24.6967 28.6366C26.1032 30.0432 28.0109 30.8333 30 30.8333Z" fill="black"/>
</svg>
